# xmcd CD database file
#
# Track frame offsets:
#	150
#	27017
#	68165
#	94027
#	135300
#	194147
#	251740
#
# Disc length: 4337 seconds
#
# Revision: 0
# Processed by: cddbd v1.5.1PL0 Copyright (c) Steve Scherf et al.
# Submitted via: CDex 1.51
#
DISCID=5c10ef07
DTITLE=Miles Davis - Premium Best
DYEAR=1998
DGENRE=Jazz
TTITLE0='Round Midnight
TTITLE1=Someday My Prince Will Come
TTITLE2=Milestones
TTITLE3=So What
TTITLE4=Stella By Starlight
TTITLE5=Autumn Leaves
TTITLE6=Concierto De Aranjuez
EXTD=YEAR: 1998
EXTT0=
EXTT1=
EXTT2=
EXTT3=
EXTT4=
EXTT5=
EXTT6=
PLAYORDER=
